<svg xmlns="http://www.w3.org/2000/svg" xmlns:xlink="http://www.w3.org/1999/xlink" width="500" zoomAndPan="magnify" viewBox="0 0 375 374.999991" height="500" preserveAspectRatio="xMidYMid meet" version="1.0"><defs><g/><clipPath id="8df982f735"><path d="M 133.164062 89.945312 L 241.914062 89.945312 L 241.914062 187.445312 L 133.164062 187.445312 Z M 133.164062 89.945312 " clip-rule="nonzero"/></clipPath><clipPath id="a2fa2ade91"><path d="M 187.1875 172.824219 L 192.898438 182.703125 C 194.636719 185.542969 197.769531 187.433594 201.34375 187.433594 C 204.925781 187.433594 208.0625 185.535156 209.800781 182.691406 L 240.859375 128.964844 C 241.53125 127.628906 241.914062 126.117188 241.914062 124.519531 C 241.914062 119.078125 237.507812 114.664062 232.066406 114.636719 L 220.824219 114.636719 L 226.9375 104.058594 C 227.546875 102.777344 227.882812 101.347656 227.882812 99.835938 C 227.882812 94.378906 223.453125 89.953125 217.988281 89.953125 L 156.359375 89.953125 C 150.917969 89.980469 146.515625 94.394531 146.515625 99.835938 C 146.515625 101.464844 146.910156 103.003906 147.609375 104.359375 L 174.777344 151.355469 L 180.320312 141.761719 C 172.1875 127.691406 164.054688 113.617188 155.917969 99.546875 C 176.761719 99.546875 197.609375 99.546875 218.453125 99.546875 L 209.730469 114.636719 C 199.277344 114.636719 188.824219 114.636719 178.371094 114.636719 L 183.914062 124.230469 C 200.109375 124.230469 216.308594 124.230469 232.5 124.230469 L 201.34375 178.128906 L 192.734375 163.230469 L 208.414062 136.101562 L 197.320312 136.101562 C 189.222656 150.109375 181.125 164.121094 173.027344 178.128906 L 136.324219 114.636719 C 131.910156 122.273438 132.609375 127.390625 135.425781 132.265625 L 164.582031 182.703125 C 166.320312 185.542969 169.453125 187.433594 173.027344 187.433594 C 176.609375 187.433594 179.746094 185.535156 181.484375 182.6875 Z M 187.1875 172.824219 " clip-rule="evenodd"/></clipPath><linearGradient x1="3060.346661" gradientTransform="matrix(0.0345513, 0, 0, 0.0345087, 133.162461, 89.953618)" y1="-68.037043" x2="498.377867" gradientUnits="userSpaceOnUse" y2="3213.896783" id="fde6f0636f"><stop stop-opacity="1" stop-color="rgb(0.926208%, 68.77594%, 92.76123%)" offset="0"/><stop stop-opacity="1" stop-color="rgb(1.164246%, 68.821716%, 92.520142%)" offset="0.00390625"/><stop stop-opacity="1" stop-color="rgb(1.403809%, 68.867493%, 92.280579%)" offset="0.0078125"/><stop stop-opacity="1" stop-color="rgb(1.641846%, 68.913269%, 92.03949%)" offset="0.0117188"/><stop stop-opacity="1" stop-color="rgb(1.879883%, 68.959045%, 91.798401%)" offset="0.015625"/><stop stop-opacity="1" stop-color="rgb(2.11792%, 69.003296%, 91.557312%)" offset="0.0195312"/><stop stop-opacity="1" stop-color="rgb(2.355957%, 69.049072%, 91.317749%)" offset="0.0234375"/><stop stop-opacity="1" stop-color="rgb(2.593994%, 69.094849%, 91.07666%)" offset="0.0273437"/><stop stop-opacity="1" stop-color="rgb(2.832031%, 69.140625%, 90.835571%)" offset="0.03125"/><stop stop-opacity="1" stop-color="rgb(3.070068%, 69.186401%, 90.594482%)" offset="0.0351562"/><stop stop-opacity="1" stop-color="rgb(3.308105%, 69.232178%, 90.354919%)" offset="0.0390625"/><stop stop-opacity="1" stop-color="rgb(3.546143%, 69.277954%, 90.113831%)" offset="0.0429687"/><stop stop-opacity="1" stop-color="rgb(3.785706%, 69.32373%, 89.872742%)" offset="0.046875"/><stop stop-opacity="1" stop-color="rgb(4.023743%, 69.367981%, 89.631653%)" offset="0.0507812"/><stop stop-opacity="1" stop-color="rgb(4.26178%, 69.413757%, 89.39209%)" offset="0.0546875"/><stop stop-opacity="1" stop-color="rgb(4.499817%, 69.459534%, 89.151001%)" offset="0.0585937"/><stop stop-opacity="1" stop-color="rgb(4.737854%, 69.50531%, 88.909912%)" offset="0.0625"/><stop stop-opacity="1" stop-color="rgb(4.975891%, 69.551086%, 88.668823%)" offset="0.0664062"/><stop stop-opacity="1" stop-color="rgb(5.213928%, 69.596863%, 88.42926%)" offset="0.0703125"/><stop stop-opacity="1" stop-color="rgb(5.451965%, 69.641113%, 88.188171%)" offset="0.0742188"/><stop stop-opacity="1" stop-color="rgb(5.691528%, 69.68689%, 87.947083%)" offset="0.078125"/><stop stop-opacity="1" stop-color="rgb(5.929565%, 69.732666%, 87.705994%)" offset="0.0820312"/><stop stop-opacity="1" stop-color="rgb(6.167603%, 69.778442%, 87.464905%)" offset="0.0859375"/><stop stop-opacity="1" stop-color="rgb(6.40564%, 69.824219%, 87.223816%)" offset="0.0898437"/><stop stop-opacity="1" stop-color="rgb(6.643677%, 69.869995%, 86.984253%)" offset="0.09375"/><stop stop-opacity="1" stop-color="rgb(6.881714%, 69.914246%, 86.743164%)" offset="0.0976562"/><stop stop-opacity="1" stop-color="rgb(7.119751%, 69.960022%, 86.502075%)" offset="0.101562"/><stop stop-opacity="1" stop-color="rgb(7.357788%, 70.005798%, 86.260986%)" offset="0.105469"/><stop stop-opacity="1" stop-color="rgb(7.595825%, 70.051575%, 86.021423%)" offset="0.109375"/><stop stop-opacity="1" stop-color="rgb(7.833862%, 70.097351%, 85.780334%)" offset="0.113281"/><stop stop-opacity="1" stop-color="rgb(8.073425%, 70.143127%, 85.539246%)" offset="0.117187"/><stop stop-opacity="1" stop-color="rgb(8.311462%, 70.188904%, 85.298157%)" offset="0.121094"/><stop stop-opacity="1" stop-color="rgb(8.5495%, 70.23468%, 85.058594%)" offset="0.125"/><stop stop-opacity="1" stop-color="rgb(8.787537%, 70.278931%, 84.817505%)" offset="0.128906"/><stop stop-opacity="1" stop-color="rgb(9.025574%, 70.324707%, 84.576416%)" offset="0.132812"/><stop stop-opacity="1" stop-color="rgb(9.263611%, 70.370483%, 84.335327%)" offset="0.136719"/><stop stop-opacity="1" stop-color="rgb(9.501648%, 70.41626%, 84.095764%)" offset="0.140625"/><stop stop-opacity="1" stop-color="rgb(9.739685%, 70.462036%, 83.854675%)" offset="0.144531"/><stop stop-opacity="1" stop-color="rgb(9.979248%, 70.507812%, 83.613586%)" offset="0.148438"/><stop stop-opacity="1" stop-color="rgb(10.217285%, 70.552063%, 83.372498%)" offset="0.152344"/><stop stop-opacity="1" stop-color="rgb(10.455322%, 70.597839%, 83.132935%)" offset="0.15625"/><stop stop-opacity="1" stop-color="rgb(10.693359%, 70.643616%, 82.891846%)" offset="0.160156"/><stop stop-opacity="1" stop-color="rgb(10.931396%, 70.689392%, 82.650757%)" offset="0.164062"/><stop stop-opacity="1" stop-color="rgb(11.169434%, 70.735168%, 82.409668%)" offset="0.167969"/><stop stop-opacity="1" stop-color="rgb(11.407471%, 70.780945%, 82.170105%)" offset="0.171875"/><stop stop-opacity="1" stop-color="rgb(11.645508%, 70.825195%, 81.929016%)" offset="0.175781"/><stop stop-opacity="1" stop-color="rgb(11.885071%, 70.870972%, 81.687927%)" offset="0.179688"/><stop stop-opacity="1" stop-color="rgb(12.123108%, 70.916748%, 81.446838%)" offset="0.183594"/><stop stop-opacity="1" stop-color="rgb(12.361145%, 70.962524%, 81.20575%)" offset="0.1875"/><stop stop-opacity="1" stop-color="rgb(12.599182%, 71.008301%, 80.964661%)" offset="0.191406"/><stop stop-opacity="1" stop-color="rgb(12.837219%, 71.054077%, 80.725098%)" offset="0.195312"/><stop stop-opacity="1" stop-color="rgb(13.075256%, 71.099854%, 80.484009%)" offset="0.199219"/><stop stop-opacity="1" stop-color="rgb(13.313293%, 71.14563%, 80.24292%)" offset="0.203125"/><stop stop-opacity="1" stop-color="rgb(13.551331%, 71.18988%, 80.001831%)" offset="0.207031"/><stop stop-opacity="1" stop-color="rgb(13.789368%, 71.235657%, 79.762268%)" offset="0.210937"/><stop stop-opacity="1" stop-color="rgb(14.027405%, 71.281433%, 79.521179%)" offset="0.214844"/><stop stop-opacity="1" stop-color="rgb(14.266968%, 71.327209%, 79.28009%)" offset="0.21875"/><stop stop-opacity="1" stop-color="rgb(14.505005%, 71.372986%, 79.039001%)" offset="0.222656"/><stop stop-opacity="1" stop-color="rgb(14.743042%, 71.418762%, 78.799438%)" offset="0.226562"/><stop stop-opacity="1" stop-color="rgb(14.981079%, 71.463013%, 78.55835%)" offset="0.230469"/><stop stop-opacity="1" stop-color="rgb(15.219116%, 71.508789%, 78.317261%)" offset="0.234375"/><stop stop-opacity="1" stop-color="rgb(15.457153%, 71.554565%, 78.076172%)" offset="0.238281"/><stop stop-opacity="1" stop-color="rgb(15.69519%, 71.600342%, 77.836609%)" offset="0.242187"/><stop stop-opacity="1" stop-color="rgb(15.933228%, 71.646118%, 77.59552%)" offset="0.246094"/><stop stop-opacity="1" stop-color="rgb(16.172791%, 71.691895%, 77.354431%)" offset="0.25"/><stop stop-opacity="1" stop-color="rgb(16.410828%, 71.736145%, 77.113342%)" offset="0.253906"/><stop stop-opacity="1" stop-color="rgb(16.648865%, 71.781921%, 76.873779%)" offset="0.257812"/><stop stop-opacity="1" stop-color="rgb(16.886902%, 71.827698%, 76.63269%)" offset="0.261719"/><stop stop-opacity="1" stop-color="rgb(17.124939%, 71.873474%, 76.391602%)" offset="0.265625"/><stop stop-opacity="1" stop-color="rgb(17.362976%, 71.91925%, 76.150513%)" offset="0.269531"/><stop stop-opacity="1" stop-color="rgb(17.601013%, 71.965027%, 75.909424%)" offset="0.273438"/><stop stop-opacity="1" stop-color="rgb(17.83905%, 72.010803%, 75.668335%)" offset="0.277344"/><stop stop-opacity="1" stop-color="rgb(18.077087%, 72.05658%, 75.428772%)" offset="0.28125"/><stop stop-opacity="1" stop-color="rgb(18.315125%, 72.10083%, 75.187683%)" offset="0.285156"/><stop stop-opacity="1" stop-color="rgb(18.554688%, 72.146606%, 74.946594%)" offset="0.289062"/><stop stop-opacity="1" stop-color="rgb(18.792725%, 72.192383%, 74.705505%)" offset="0.292969"/><stop stop-opacity="1" stop-color="rgb(19.030762%, 72.238159%, 74.465942%)" offset="0.296875"/><stop stop-opacity="1" stop-color="rgb(19.268799%, 72.283936%, 74.224854%)" offset="0.300781"/><stop stop-opacity="1" stop-color="rgb(19.506836%, 72.329712%, 73.983765%)" offset="0.304688"/><stop stop-opacity="1" stop-color="rgb(19.744873%, 72.373962%, 73.742676%)" offset="0.308594"/><stop stop-opacity="1" stop-color="rgb(19.98291%, 72.419739%, 73.503113%)" offset="0.3125"/><stop stop-opacity="1" stop-color="rgb(20.220947%, 72.465515%, 73.262024%)" offset="0.316406"/><stop stop-opacity="1" stop-color="rgb(20.46051%, 72.511292%, 73.020935%)" offset="0.320312"/><stop stop-opacity="1" stop-color="rgb(20.698547%, 72.557068%, 72.779846%)" offset="0.324219"/><stop stop-opacity="1" stop-color="rgb(20.936584%, 72.602844%, 72.540283%)" offset="0.328125"/><stop stop-opacity="1" stop-color="rgb(21.174622%, 72.647095%, 72.299194%)" offset="0.332031"/><stop stop-opacity="1" stop-color="rgb(21.412659%, 72.692871%, 72.058105%)" offset="0.335938"/><stop stop-opacity="1" stop-color="rgb(21.650696%, 72.738647%, 71.817017%)" offset="0.339844"/><stop stop-opacity="1" stop-color="rgb(21.888733%, 72.784424%, 71.577454%)" offset="0.34375"/><stop stop-opacity="1" stop-color="rgb(22.12677%, 72.8302%, 71.336365%)" offset="0.347656"/><stop stop-opacity="1" stop-color="rgb(22.366333%, 72.875977%, 71.095276%)" offset="0.351562"/><stop stop-opacity="1" stop-color="rgb(22.60437%, 72.920227%, 70.854187%)" offset="0.355469"/><stop stop-opacity="1" stop-color="rgb(22.842407%, 72.966003%, 70.613098%)" offset="0.359375"/><stop stop-opacity="1" stop-color="rgb(23.080444%, 73.01178%, 70.372009%)" offset="0.363281"/><stop stop-opacity="1" stop-color="rgb(23.318481%, 73.057556%, 70.132446%)" offset="0.367187"/><stop stop-opacity="1" stop-color="rgb(23.556519%, 73.103333%, 69.891357%)" offset="0.371094"/><stop stop-opacity="1" stop-color="rgb(23.794556%, 73.149109%, 69.650269%)" offset="0.375"/><stop stop-opacity="1" stop-color="rgb(24.032593%, 73.194885%, 69.40918%)" offset="0.378906"/><stop stop-opacity="1" stop-color="rgb(24.27063%, 73.240662%, 69.169617%)" offset="0.382812"/><stop stop-opacity="1" stop-color="rgb(24.508667%, 73.284912%, 68.928528%)" offset="0.386719"/><stop stop-opacity="1" stop-color="rgb(24.74823%, 73.330688%, 68.687439%)" offset="0.390625"/><stop stop-opacity="1" stop-color="rgb(24.986267%, 73.376465%, 68.44635%)" offset="0.394531"/><stop stop-opacity="1" stop-color="rgb(25.224304%, 73.422241%, 68.206787%)" offset="0.398438"/><stop stop-opacity="1" stop-color="rgb(25.462341%, 73.468018%, 67.965698%)" offset="0.402344"/><stop stop-opacity="1" stop-color="rgb(25.700378%, 73.513794%, 67.724609%)" offset="0.40625"/><stop stop-opacity="1" stop-color="rgb(25.938416%, 73.558044%, 67.483521%)" offset="0.410156"/><stop stop-opacity="1" stop-color="rgb(26.176453%, 73.603821%, 67.243958%)" offset="0.414062"/><stop stop-opacity="1" stop-color="rgb(26.41449%, 73.649597%, 67.002869%)" offset="0.417969"/><stop stop-opacity="1" stop-color="rgb(26.654053%, 73.695374%, 66.76178%)" offset="0.421875"/><stop stop-opacity="1" stop-color="rgb(26.89209%, 73.74115%, 66.520691%)" offset="0.425781"/><stop stop-opacity="1" stop-color="rgb(27.130127%, 73.786926%, 66.281128%)" offset="0.429688"/><stop stop-opacity="1" stop-color="rgb(27.368164%, 73.831177%, 66.040039%)" offset="0.433594"/><stop stop-opacity="1" stop-color="rgb(27.606201%, 73.876953%, 65.79895%)" offset="0.4375"/><stop stop-opacity="1" stop-color="rgb(27.844238%, 73.922729%, 65.557861%)" offset="0.441406"/><stop stop-opacity="1" stop-color="rgb(28.082275%, 73.968506%, 65.316772%)" offset="0.445312"/><stop stop-opacity="1" stop-color="rgb(28.320312%, 74.014282%, 65.075684%)" offset="0.449219"/><stop stop-opacity="1" stop-color="rgb(28.55835%, 74.060059%, 64.836121%)" offset="0.453125"/><stop stop-opacity="1" stop-color="rgb(28.796387%, 74.105835%, 64.595032%)" offset="0.457031"/><stop stop-opacity="1" stop-color="rgb(29.03595%, 74.151611%, 64.353943%)" offset="0.460938"/><stop stop-opacity="1" stop-color="rgb(29.273987%, 74.195862%, 64.112854%)" offset="0.464844"/><stop stop-opacity="1" stop-color="rgb(29.512024%, 74.241638%, 63.873291%)" offset="0.46875"/><stop stop-opacity="1" stop-color="rgb(29.750061%, 74.287415%, 63.632202%)" offset="0.472656"/><stop stop-opacity="1" stop-color="rgb(29.988098%, 74.333191%, 63.391113%)" offset="0.476562"/><stop stop-opacity="1" stop-color="rgb(30.226135%, 74.378967%, 63.150024%)" offset="0.480469"/><stop stop-opacity="1" stop-color="rgb(30.464172%, 74.424744%, 62.910461%)" offset="0.484375"/><stop stop-opacity="1" stop-color="rgb(30.702209%, 74.468994%, 62.669373%)" offset="0.488281"/><stop stop-opacity="1" stop-color="rgb(30.941772%, 74.514771%, 62.428284%)" offset="0.492188"/><stop stop-opacity="1" stop-color="rgb(31.17981%, 74.560547%, 62.187195%)" offset="0.496094"/><stop stop-opacity="1" stop-color="rgb(31.417847%, 74.606323%, 61.947632%)" offset="0.5"/><stop stop-opacity="1" stop-color="rgb(31.655884%, 74.6521%, 61.706543%)" offset="0.503906"/><stop stop-opacity="1" stop-color="rgb(31.893921%, 74.697876%, 61.465454%)" offset="0.507812"/><stop stop-opacity="1" stop-color="rgb(32.131958%, 74.742126%, 61.224365%)" offset="0.511719"/><stop stop-opacity="1" stop-color="rgb(32.369995%, 74.787903%, 60.984802%)" offset="0.515625"/><stop stop-opacity="1" stop-color="rgb(32.608032%, 74.833679%, 60.743713%)" offset="0.519531"/><stop stop-opacity="1" stop-color="rgb(32.847595%, 74.879456%, 60.502625%)" offset="0.523438"/><stop stop-opacity="1" stop-color="rgb(33.085632%, 74.925232%, 60.261536%)" offset="0.527344"/><stop stop-opacity="1" stop-color="rgb(33.323669%, 74.971008%, 60.021973%)" offset="0.53125"/><stop stop-opacity="1" stop-color="rgb(33.561707%, 75.016785%, 59.780884%)" offset="0.535156"/><stop stop-opacity="1" stop-color="rgb(33.799744%, 75.062561%, 59.539795%)" offset="0.539062"/><stop stop-opacity="1" stop-color="rgb(34.037781%, 75.106812%, 59.298706%)" offset="0.542969"/><stop stop-opacity="1" stop-color="rgb(34.275818%, 75.152588%, 59.057617%)" offset="0.546875"/><stop stop-opacity="1" stop-color="rgb(34.513855%, 75.198364%, 58.816528%)" offset="0.550781"/><stop stop-opacity="1" stop-color="rgb(34.751892%, 75.244141%, 58.576965%)" offset="0.554688"/><stop stop-opacity="1" stop-color="rgb(34.989929%, 75.289917%, 58.335876%)" offset="0.558594"/><stop stop-opacity="1" stop-color="rgb(35.229492%, 75.335693%, 58.094788%)" offset="0.5625"/><stop stop-opacity="1" stop-color="rgb(35.467529%, 75.379944%, 57.853699%)" offset="0.566406"/><stop stop-opacity="1" stop-color="rgb(35.705566%, 75.42572%, 57.614136%)" offset="0.570312"/><stop stop-opacity="1" stop-color="rgb(35.943604%, 75.471497%, 57.373047%)" offset="0.574219"/><stop stop-opacity="1" stop-color="rgb(36.181641%, 75.517273%, 57.131958%)" offset="0.578125"/><stop stop-opacity="1" stop-color="rgb(36.419678%, 75.563049%, 56.890869%)" offset="0.582031"/><stop stop-opacity="1" stop-color="rgb(36.657715%, 75.608826%, 56.651306%)" offset="0.585938"/><stop stop-opacity="1" stop-color="rgb(36.895752%, 75.653076%, 56.410217%)" offset="0.589844"/><stop stop-opacity="1" stop-color="rgb(37.135315%, 75.698853%, 56.169128%)" offset="0.59375"/><stop stop-opacity="1" stop-color="rgb(37.373352%, 75.744629%, 55.92804%)" offset="0.597656"/><stop stop-opacity="1" stop-color="rgb(37.611389%, 75.790405%, 55.688477%)" offset="0.601562"/><stop stop-opacity="1" stop-color="rgb(37.849426%, 75.836182%, 55.447388%)" offset="0.605469"/><stop stop-opacity="1" stop-color="rgb(38.087463%, 75.881958%, 55.206299%)" offset="0.609375"/><stop stop-opacity="1" stop-color="rgb(38.3255%, 75.927734%, 54.96521%)" offset="0.613281"/><stop stop-opacity="1" stop-color="rgb(38.563538%, 75.973511%, 54.725647%)" offset="0.617188"/><stop stop-opacity="1" stop-color="rgb(38.801575%, 76.017761%, 54.484558%)" offset="0.621094"/><stop stop-opacity="1" stop-color="rgb(39.039612%, 76.063538%, 54.243469%)" offset="0.625"/><stop stop-opacity="1" stop-color="rgb(39.277649%, 76.109314%, 54.00238%)" offset="0.628906"/><stop stop-opacity="1" stop-color="rgb(39.517212%, 76.15509%, 53.761292%)" offset="0.632812"/><stop stop-opacity="1" stop-color="rgb(39.755249%, 76.200867%, 53.520203%)" offset="0.636719"/><stop stop-opacity="1" stop-color="rgb(39.993286%, 76.246643%, 53.28064%)" offset="0.640625"/><stop stop-opacity="1" stop-color="rgb(40.231323%, 76.290894%, 53.039551%)" offset="0.644531"/><stop stop-opacity="1" stop-color="rgb(40.46936%, 76.33667%, 52.798462%)" offset="0.648438"/><stop stop-opacity="1" stop-color="rgb(40.707397%, 76.382446%, 52.557373%)" offset="0.652344"/><stop stop-opacity="1" stop-color="rgb(40.945435%, 76.428223%, 52.31781%)" offset="0.65625"/><stop stop-opacity="1" stop-color="rgb(41.183472%, 76.473999%, 52.076721%)" offset="0.660156"/><stop stop-opacity="1" stop-color="rgb(41.423035%, 76.519775%, 51.835632%)" offset="0.664062"/><stop stop-opacity="1" stop-color="rgb(41.661072%, 76.564026%, 51.594543%)" offset="0.667969"/><stop stop-opacity="1" stop-color="rgb(41.899109%, 76.609802%, 51.35498%)" offset="0.671875"/><stop stop-opacity="1" stop-color="rgb(42.137146%, 76.655579%, 51.113892%)" offset="0.675781"/><stop stop-opacity="1" stop-color="rgb(42.375183%, 76.701355%, 50.872803%)" offset="0.679687"/><stop stop-opacity="1" stop-color="rgb(42.61322%, 76.747131%, 50.631714%)" offset="0.683594"/><stop stop-opacity="1" stop-color="rgb(42.851257%, 76.792908%, 50.392151%)" offset="0.6875"/><stop stop-opacity="1" stop-color="rgb(43.089294%, 76.837158%, 50.151062%)" offset="0.691406"/><stop stop-opacity="1" stop-color="rgb(43.328857%, 76.882935%, 49.909973%)" offset="0.695312"/><stop stop-opacity="1" stop-color="rgb(43.566895%, 76.928711%, 49.668884%)" offset="0.699219"/><stop stop-opacity="1" stop-color="rgb(43.804932%, 76.974487%, 49.429321%)" offset="0.703125"/><stop stop-opacity="1" stop-color="rgb(44.042969%, 77.020264%, 49.188232%)" offset="0.707031"/><stop stop-opacity="1" stop-color="rgb(44.281006%, 77.06604%, 48.947144%)" offset="0.710938"/><stop stop-opacity="1" stop-color="rgb(44.519043%, 77.111816%, 48.706055%)" offset="0.714844"/><stop stop-opacity="1" stop-color="rgb(44.75708%, 77.157593%, 48.464966%)" offset="0.71875"/><stop stop-opacity="1" stop-color="rgb(44.995117%, 77.201843%, 48.223877%)" offset="0.722656"/><stop stop-opacity="1" stop-color="rgb(45.233154%, 77.24762%, 47.984314%)" offset="0.726562"/><stop stop-opacity="1" stop-color="rgb(45.471191%, 77.293396%, 47.743225%)" offset="0.730469"/><stop stop-opacity="1" stop-color="rgb(45.710754%, 77.339172%, 47.502136%)" offset="0.734375"/><stop stop-opacity="1" stop-color="rgb(45.948792%, 77.384949%, 47.261047%)" offset="0.738281"/><stop stop-opacity="1" stop-color="rgb(46.186829%, 77.430725%, 47.021484%)" offset="0.742188"/><stop stop-opacity="1" stop-color="rgb(46.424866%, 77.474976%, 46.780396%)" offset="0.746094"/><stop stop-opacity="1" stop-color="rgb(46.662903%, 77.520752%, 46.539307%)" offset="0.75"/><stop stop-opacity="1" stop-color="rgb(46.90094%, 77.566528%, 46.298218%)" offset="0.753906"/><stop stop-opacity="1" stop-color="rgb(47.138977%, 77.612305%, 46.058655%)" offset="0.757812"/><stop stop-opacity="1" stop-color="rgb(47.377014%, 77.658081%, 45.817566%)" offset="0.761719"/><stop stop-opacity="1" stop-color="rgb(47.616577%, 77.703857%, 45.576477%)" offset="0.765625"/><stop stop-opacity="1" stop-color="rgb(47.854614%, 77.748108%, 45.335388%)" offset="0.769531"/><stop stop-opacity="1" stop-color="rgb(48.092651%, 77.793884%, 45.095825%)" offset="0.773438"/><stop stop-opacity="1" stop-color="rgb(48.330688%, 77.839661%, 44.854736%)" offset="0.777344"/><stop stop-opacity="1" stop-color="rgb(48.568726%, 77.885437%, 44.613647%)" offset="0.78125"/><stop stop-opacity="1" stop-color="rgb(48.806763%, 77.931213%, 44.372559%)" offset="0.785156"/><stop stop-opacity="1" stop-color="rgb(49.0448%, 77.97699%, 44.132996%)" offset="0.789062"/><stop stop-opacity="1" stop-color="rgb(49.282837%, 78.022766%, 43.891907%)" offset="0.792969"/><stop stop-opacity="1" stop-color="rgb(49.520874%, 78.068542%, 43.650818%)" offset="0.796875"/><stop stop-opacity="1" stop-color="rgb(49.758911%, 78.112793%, 43.409729%)" offset="0.800781"/><stop stop-opacity="1" stop-color="rgb(49.998474%, 78.158569%, 43.16864%)" offset="0.804688"/><stop stop-opacity="1" stop-color="rgb(50.236511%, 78.204346%, 42.927551%)" offset="0.808594"/><stop stop-opacity="1" stop-color="rgb(50.474548%, 78.250122%, 42.687988%)" offset="0.8125"/><stop stop-opacity="1" stop-color="rgb(50.712585%, 78.295898%, 42.446899%)" offset="0.816406"/><stop stop-opacity="1" stop-color="rgb(50.950623%, 78.341675%, 42.205811%)" offset="0.820312"/><stop stop-opacity="1" stop-color="rgb(51.18866%, 78.385925%, 41.964722%)" offset="0.824219"/><stop stop-opacity="1" stop-color="rgb(51.426697%, 78.431702%, 41.725159%)" offset="0.828125"/><stop stop-opacity="1" stop-color="rgb(51.664734%, 78.477478%, 41.48407%)" offset="0.832031"/><stop stop-opacity="1" stop-color="rgb(51.904297%, 78.523254%, 41.242981%)" offset="0.835937"/><stop stop-opacity="1" stop-color="rgb(52.142334%, 78.569031%, 41.001892%)" offset="0.839844"/><stop stop-opacity="1" stop-color="rgb(52.380371%, 78.614807%, 40.762329%)" offset="0.84375"/><stop stop-opacity="1" stop-color="rgb(52.618408%, 78.659058%, 40.52124%)" offset="0.847656"/><stop stop-opacity="1" stop-color="rgb(52.856445%, 78.704834%, 40.280151%)" offset="0.851562"/><stop stop-opacity="1" stop-color="rgb(53.094482%, 78.75061%, 40.039062%)" offset="0.855469"/><stop stop-opacity="1" stop-color="rgb(53.33252%, 78.796387%, 39.7995%)" offset="0.859375"/><stop stop-opacity="1" stop-color="rgb(53.570557%, 78.842163%, 39.558411%)" offset="0.863281"/><stop stop-opacity="1" stop-color="rgb(53.81012%, 78.887939%, 39.317322%)" offset="0.867188"/><stop stop-opacity="1" stop-color="rgb(54.048157%, 78.933716%, 39.076233%)" offset="0.871094"/><stop stop-opacity="1" stop-color="rgb(54.286194%, 78.979492%, 38.83667%)" offset="0.875"/><stop stop-opacity="1" stop-color="rgb(54.524231%, 79.023743%, 38.595581%)" offset="0.878906"/><stop stop-opacity="1" stop-color="rgb(54.762268%, 79.069519%, 38.354492%)" offset="0.882812"/><stop stop-opacity="1" stop-color="rgb(55.000305%, 79.115295%, 38.113403%)" offset="0.886719"/><stop stop-opacity="1" stop-color="rgb(55.238342%, 79.161072%, 37.87384%)" offset="0.890625"/><stop stop-opacity="1" stop-color="rgb(55.476379%, 79.206848%, 37.632751%)" offset="0.894531"/><stop stop-opacity="1" stop-color="rgb(55.714417%, 79.252625%, 37.391663%)" offset="0.898438"/><stop stop-opacity="1" stop-color="rgb(55.952454%, 79.296875%, 37.150574%)" offset="0.902344"/><stop stop-opacity="1" stop-color="rgb(56.192017%, 79.342651%, 36.909485%)" offset="0.90625"/><stop stop-opacity="1" stop-color="rgb(56.430054%, 79.388428%, 36.668396%)" offset="0.910156"/><stop stop-opacity="1" stop-color="rgb(56.668091%, 79.434204%, 36.428833%)" offset="0.914062"/><stop stop-opacity="1" stop-color="rgb(56.906128%, 79.47998%, 36.187744%)" offset="0.917969"/><stop stop-opacity="1" stop-color="rgb(57.144165%, 79.525757%, 35.946655%)" offset="0.921875"/><stop stop-opacity="1" stop-color="rgb(57.382202%, 79.570007%, 35.705566%)" offset="0.925781"/><stop stop-opacity="1" stop-color="rgb(57.620239%, 79.615784%, 35.466003%)" offset="0.929688"/><stop stop-opacity="1" stop-color="rgb(57.858276%, 79.66156%, 35.224915%)" offset="0.933594"/><stop stop-opacity="1" stop-color="rgb(58.097839%, 79.707336%, 34.983826%)" offset="0.9375"/><stop stop-opacity="1" stop-color="rgb(58.335876%, 79.753113%, 34.742737%)" offset="0.941406"/><stop stop-opacity="1" stop-color="rgb(58.573914%, 79.798889%, 34.503174%)" offset="0.945312"/><stop stop-opacity="1" stop-color="rgb(58.811951%, 79.84314%, 34.262085%)" offset="0.949219"/><stop stop-opacity="1" stop-color="rgb(59.049988%, 79.888916%, 34.020996%)" offset="0.953125"/><stop stop-opacity="1" stop-color="rgb(59.288025%, 79.934692%, 33.779907%)" offset="0.957031"/><stop stop-opacity="1" stop-color="rgb(59.526062%, 79.980469%, 33.540344%)" offset="0.960938"/><stop stop-opacity="1" stop-color="rgb(59.764099%, 80.026245%, 33.299255%)" offset="0.964844"/><stop stop-opacity="1" stop-color="rgb(60.002136%, 80.072021%, 33.058167%)" offset="0.96875"/><stop stop-opacity="1" stop-color="rgb(60.240173%, 80.117798%, 32.817078%)" offset="0.972656"/><stop stop-opacity="1" stop-color="rgb(60.479736%, 80.163574%, 32.577515%)" offset="0.976562"/><stop stop-opacity="1" stop-color="rgb(60.717773%, 80.207825%, 32.336426%)" offset="0.980469"/><stop stop-opacity="1" stop-color="rgb(60.955811%, 80.253601%, 32.095337%)" offset="0.984375"/><stop stop-opacity="1" stop-color="rgb(61.193848%, 80.299377%, 31.854248%)" offset="0.988281"/><stop stop-opacity="1" stop-color="rgb(61.431885%, 80.345154%, 31.613159%)" offset="0.992188"/><stop stop-opacity="1" stop-color="rgb(61.669922%, 80.39093%, 31.37207%)" offset="0.996094"/><stop stop-opacity="1" stop-color="rgb(61.907959%, 80.436707%, 31.132507%)" offset="1"/></linearGradient></defs><g clip-path="url(#8df982f735)"><g clip-path="url(#a2fa2ade91)"><path fill="url(#fde6f0636f)" d="M 133.164062 89.953125 L 133.164062 187.433594 L 241.914062 187.433594 L 241.914062 89.953125 Z M 133.164062 89.953125 " fill-rule="nonzero"/></g></g><g fill="#00afef" fill-opacity="1"><g transform="translate(99.864842, 240.972671)"><g><path d="M 17.640625 -8.78125 L 17.734375 -14.5 C 17.734375 -14.882812 18.140625 -15.140625 18.953125 -15.265625 C 19.765625 -15.398438 20.4375 -15.46875 20.96875 -15.46875 L 22.609375 -15.328125 C 23.671875 -15.160156 24.203125 -14.867188 24.203125 -14.453125 L 24.03125 -1.296875 C 23.46875 -0.910156 22.335938 -0.523438 20.640625 -0.140625 C 18.953125 0.234375 17.015625 0.421875 14.828125 0.421875 C 10.765625 0.421875 7.488281 -0.894531 5 -3.53125 C 2.507812 -6.164062 1.265625 -10.03125 1.265625 -15.125 C 1.265625 -19.46875 2.484375 -22.992188 4.921875 -25.703125 C 7.359375 -28.421875 10.734375 -29.78125 15.046875 -29.78125 C 17.003906 -29.78125 18.773438 -29.59375 20.359375 -29.21875 C 21.941406 -28.84375 23.023438 -28.332031 23.609375 -27.6875 C 23.640625 -27.46875 23.65625 -27.046875 23.65625 -26.421875 C 23.65625 -25.804688 23.441406 -24.929688 23.015625 -23.796875 C 22.597656 -22.660156 22.125 -21.8125 21.59375 -21.25 C 21.0625 -20.695312 20.675781 -20.421875 20.4375 -20.421875 C 20.195312 -20.421875 19.941406 -20.523438 19.671875 -20.734375 C 19.410156 -20.941406 18.890625 -21.164062 18.109375 -21.40625 C 17.328125 -21.644531 16.570312 -21.765625 15.84375 -21.765625 C 14.101562 -21.765625 12.691406 -21.203125 11.609375 -20.078125 C 10.535156 -18.960938 10 -17.226562 10 -14.875 C 10 -12.519531 10.550781 -10.734375 11.65625 -9.515625 C 12.757812 -8.296875 14.03125 -7.6875 15.46875 -7.6875 C 16.914062 -7.6875 17.640625 -8.050781 17.640625 -8.78125 Z M 17.640625 -8.78125 "/></g></g></g><g fill="#00afef" fill-opacity="1"><g transform="translate(125.954165, 240.972671)"><g><path d="M 0.375 -3.78125 C 0.375 -4.59375 0.613281 -5.535156 1.09375 -6.609375 C 1.570312 -7.691406 2.085938 -8.429688 2.640625 -8.828125 C 3.710938 -8.035156 4.789062 -7.640625 5.875 -7.640625 L 7.1875 -7.859375 C 8.695312 -8.304688 9.476562 -9.507812 9.53125 -11.46875 L 9.53125 -22.1875 L 6.171875 -22.1875 C 5.703125 -22.1875 5.367188 -22.785156 5.171875 -23.984375 C 5.085938 -24.578125 5.046875 -25.179688 5.046875 -25.796875 C 5.046875 -26.410156 5.085938 -27.015625 5.171875 -27.609375 C 5.367188 -28.804688 5.703125 -29.40625 6.171875 -29.40625 L 16.171875 -29.40625 C 16.734375 -29.40625 17.15625 -29.242188 17.4375 -28.921875 C 17.71875 -28.597656 17.859375 -28.210938 17.859375 -27.765625 L 17.859375 -7.9375 C 17.859375 -5.195312 16.941406 -3.109375 15.109375 -1.671875 C 13.273438 -0.242188 11.070312 0.46875 8.5 0.46875 C 5.9375 0.46875 3.941406 0.0859375 2.515625 -0.671875 C 1.085938 -1.429688 0.375 -2.46875 0.375 -3.78125 Z M 0.375 -3.78125 "/></g></g></g><g fill="#00afef" fill-opacity="1"><g transform="translate(145.363618, 240.972671)"><g><path d="M 14.59375 0.421875 C 10.664062 0.421875 7.460938 -0.863281 4.984375 -3.4375 C 2.503906 -6.019531 1.265625 -9.78125 1.265625 -14.71875 C 1.265625 -19.664062 2.515625 -23.410156 5.015625 -25.953125 C 7.523438 -28.503906 10.757812 -29.78125 14.71875 -29.78125 C 18.6875 -29.78125 21.890625 -28.523438 24.328125 -26.015625 C 26.765625 -23.515625 27.984375 -19.722656 27.984375 -14.640625 C 27.984375 -9.554688 26.734375 -5.773438 24.234375 -3.296875 C 21.742188 -0.816406 18.53125 0.421875 14.59375 0.421875 Z M 14.625 -21.71875 C 13.28125 -21.71875 12.148438 -21.101562 11.234375 -19.875 C 10.328125 -18.644531 9.875 -16.914062 9.875 -14.6875 C 9.875 -12.457031 10.304688 -10.742188 11.171875 -9.546875 C 12.046875 -8.359375 13.1875 -7.765625 14.59375 -7.765625 C 16.007812 -7.765625 17.160156 -8.367188 18.046875 -9.578125 C 18.929688 -10.785156 19.375 -12.507812 19.375 -14.75 C 19.375 -16.988281 18.914062 -18.707031 18 -19.90625 C 17.09375 -21.113281 15.96875 -21.71875 14.625 -21.71875 Z M 14.625 -21.71875 "/></g></g></g><g fill="#00afef" fill-opacity="1"><g transform="translate(174.603832, 240.972671)"><g><path d="M 0.46875 -28.859375 C 0.46875 -29.003906 1.078125 -29.140625 2.296875 -29.265625 C 3.515625 -29.390625 4.515625 -29.453125 5.296875 -29.453125 C 8.398438 -29.453125 10.023438 -29.046875 10.171875 -28.234375 L 13.78125 -9.75 L 17.1875 -28.234375 C 17.351562 -29.046875 19.085938 -29.453125 22.390625 -29.453125 C 23.203125 -29.453125 24.222656 -29.394531 25.453125 -29.28125 C 26.691406 -29.164062 27.3125 -29.039062 27.3125 -28.90625 L 19.875 -1.09375 C 19.757812 -0.644531 18.929688 -0.347656 17.390625 -0.203125 C 15.015625 0.046875 12.851562 0.09375 10.90625 -0.0625 C 8.957031 -0.21875 7.925781 -0.488281 7.8125 -0.875 Z M 0.46875 -28.859375 "/></g></g></g><g fill="#00afef" fill-opacity="1"><g transform="translate(202.373628, 240.972671)"><g><path d="M 21.84375 0.078125 C 19.40625 0.078125 18.09375 -0.3125 17.90625 -1.09375 L 16.515625 -6.515625 L 9.828125 -6.515625 L 8.609375 -1.296875 C 8.441406 -0.429688 7.097656 0 4.578125 0 C 3.234375 0 2.238281 -0.078125 1.59375 -0.234375 C 0.945312 -0.390625 0.625 -0.507812 0.625 -0.59375 L 8.0625 -29.03125 C 8.0625 -29.257812 9.976562 -29.375 13.8125 -29.375 C 17.65625 -29.375 19.578125 -29.257812 19.578125 -29.03125 L 26.84375 -0.546875 C 26.84375 -0.347656 26.195312 -0.191406 24.90625 -0.078125 C 23.625 0.0234375 22.601562 0.078125 21.84375 0.078125 Z M 10.875 -11.84375 L 15.296875 -11.84375 L 13.40625 -20.546875 L 13.15625 -20.546875 Z M 10.875 -11.84375 "/></g></g></g><g fill="#00afef" fill-opacity="1"><g transform="translate(229.891357, 240.972671)"><g><path d="M 25.125 -0.921875 C 25.125 -0.335938 23.804688 -0.046875 21.171875 -0.046875 C 18.535156 -0.046875 17.109375 -0.253906 16.890625 -0.671875 L 9.875 -13.78125 L 9.875 -0.71875 C 9.875 -0.207031 8.578125 0.046875 5.984375 0.046875 C 3.390625 0.046875 2.09375 -0.207031 2.09375 -0.71875 L 2.09375 -28.828125 C 2.09375 -29.242188 3.203125 -29.453125 5.421875 -29.453125 C 6.285156 -29.453125 7.296875 -29.375 8.453125 -29.21875 C 9.617188 -29.0625 10.332031 -28.773438 10.59375 -28.359375 L 17.3125 -15.421875 L 17.3125 -28.609375 C 17.3125 -29.140625 18.613281 -29.40625 21.21875 -29.40625 C 23.820312 -29.40625 25.125 -29.140625 25.125 -28.609375 Z M 25.125 -0.921875 "/></g></g></g><g fill="#00afef" fill-opacity="1"><g transform="translate(257.114996, 240.972671)"><g><path d="M 4.875 -7.234375 L 4.875 -22.1875 L 1.890625 -22.1875 C 1.410156 -22.1875 1.070312 -22.785156 0.875 -23.984375 C 0.789062 -24.578125 0.75 -25.179688 0.75 -25.796875 C 0.75 -26.410156 0.789062 -27.015625 0.875 -27.609375 C 1.070312 -28.804688 1.410156 -29.40625 1.890625 -29.40625 L 16.015625 -29.40625 C 16.484375 -29.40625 16.800781 -28.804688 16.96875 -27.609375 C 17.082031 -27.015625 17.140625 -26.410156 17.140625 -25.796875 C 17.140625 -25.179688 17.082031 -24.578125 16.96875 -23.984375 C 16.800781 -22.785156 16.484375 -22.1875 16.015625 -22.1875 L 13.1875 -22.1875 L 13.1875 -7.234375 L 16.140625 -7.234375 C 16.609375 -7.234375 16.941406 -6.628906 17.140625 -5.421875 C 17.253906 -4.828125 17.3125 -4.222656 17.3125 -3.609375 C 17.3125 -2.992188 17.253906 -2.394531 17.140625 -1.8125 C 16.941406 -0.601562 16.609375 0 16.140625 0 L 1.96875 0 C 1.5 0 1.179688 -0.601562 1.015625 -1.8125 C 0.898438 -2.394531 0.84375 -2.992188 0.84375 -3.609375 C 0.84375 -4.222656 0.898438 -4.828125 1.015625 -5.421875 C 1.179688 -6.628906 1.5 -7.234375 1.96875 -7.234375 Z M 4.875 -7.234375 "/></g></g></g><g fill="#00afef" fill-opacity="1"><g transform="translate(275.130455, 240.972671)"><g/></g></g><g fill="#00afef" fill-opacity="1"><g transform="translate(82.45078, 299.472667)"><g><path d="M 17.640625 -8.78125 L 17.734375 -14.5 C 17.734375 -14.882812 18.140625 -15.140625 18.953125 -15.265625 C 19.765625 -15.398438 20.4375 -15.46875 20.96875 -15.46875 L 22.609375 -15.328125 C 23.671875 -15.160156 24.203125 -14.867188 24.203125 -14.453125 L 24.03125 -1.296875 C 23.46875 -0.910156 22.335938 -0.523438 20.640625 -0.140625 C 18.953125 0.234375 17.015625 0.421875 14.828125 0.421875 C 10.765625 0.421875 7.488281 -0.894531 5 -3.53125 C 2.507812 -6.164062 1.265625 -10.03125 1.265625 -15.125 C 1.265625 -19.46875 2.484375 -22.992188 4.921875 -25.703125 C 7.359375 -28.421875 10.734375 -29.78125 15.046875 -29.78125 C 17.003906 -29.78125 18.773438 -29.59375 20.359375 -29.21875 C 21.941406 -28.84375 23.023438 -28.332031 23.609375 -27.6875 C 23.640625 -27.46875 23.65625 -27.046875 23.65625 -26.421875 C 23.65625 -25.804688 23.441406 -24.929688 23.015625 -23.796875 C 22.597656 -22.660156 22.125 -21.8125 21.59375 -21.25 C 21.0625 -20.695312 20.675781 -20.421875 20.4375 -20.421875 C 20.195312 -20.421875 19.941406 -20.523438 19.671875 -20.734375 C 19.410156 -20.941406 18.890625 -21.164062 18.109375 -21.40625 C 17.328125 -21.644531 16.570312 -21.765625 15.84375 -21.765625 C 14.101562 -21.765625 12.691406 -21.203125 11.609375 -20.078125 C 10.535156 -18.960938 10 -17.226562 10 -14.875 C 10 -12.519531 10.550781 -10.734375 11.65625 -9.515625 C 12.757812 -8.296875 14.03125 -7.6875 15.46875 -7.6875 C 16.914062 -7.6875 17.640625 -8.050781 17.640625 -8.78125 Z M 17.640625 -8.78125 "/></g></g></g><g fill="#00afef" fill-opacity="1"><g transform="translate(108.540104, 299.472667)"><g><path d="M 14.59375 0.421875 C 10.664062 0.421875 7.460938 -0.863281 4.984375 -3.4375 C 2.503906 -6.019531 1.265625 -9.78125 1.265625 -14.71875 C 1.265625 -19.664062 2.515625 -23.410156 5.015625 -25.953125 C 7.523438 -28.503906 10.757812 -29.78125 14.71875 -29.78125 C 18.6875 -29.78125 21.890625 -28.523438 24.328125 -26.015625 C 26.765625 -23.515625 27.984375 -19.722656 27.984375 -14.640625 C 27.984375 -9.554688 26.734375 -5.773438 24.234375 -3.296875 C 21.742188 -0.816406 18.53125 0.421875 14.59375 0.421875 Z M 14.625 -21.71875 C 13.28125 -21.71875 12.148438 -21.101562 11.234375 -19.875 C 10.328125 -18.644531 9.875 -16.914062 9.875 -14.6875 C 9.875 -12.457031 10.304688 -10.742188 11.171875 -9.546875 C 12.046875 -8.359375 13.1875 -7.765625 14.59375 -7.765625 C 16.007812 -7.765625 17.160156 -8.367188 18.046875 -9.578125 C 18.929688 -10.785156 19.375 -12.507812 19.375 -14.75 C 19.375 -16.988281 18.914062 -18.707031 18 -19.90625 C 17.09375 -21.113281 15.96875 -21.71875 14.625 -21.71875 Z M 14.625 -21.71875 "/></g></g></g><g fill="#00afef" fill-opacity="1"><g transform="translate(137.780318, 299.472667)"><g><path d="M 10.125 -0.59375 C 10.125 -0.144531 8.796875 0.078125 6.140625 0.078125 C 3.441406 0.078125 2.09375 -0.128906 2.09375 -0.546875 L 2.09375 -27.9375 C 2.09375 -28.914062 2.613281 -29.40625 3.65625 -29.40625 L 11.6875 -29.40625 C 19.050781 -29.40625 22.734375 -26.535156 22.734375 -20.796875 C 22.734375 -19.054688 22.394531 -17.476562 21.71875 -16.0625 C 21.050781 -14.65625 20.097656 -13.53125 18.859375 -12.6875 L 24.15625 -3.859375 C 23.9375 -3.191406 23.207031 -2.421875 21.96875 -1.546875 C 20.289062 -0.347656 18.90625 0.25 17.8125 0.25 C 16.71875 0.25 15.90625 -0.140625 15.375 -0.921875 L 11.421875 -10.125 L 10.125 -10.125 Z M 10.125 -21.96875 L 10.125 -15.671875 L 10.328125 -15.671875 C 12.992188 -15.671875 14.328125 -16.773438 14.328125 -18.984375 C 14.328125 -19.992188 14.066406 -20.742188 13.546875 -21.234375 C 13.023438 -21.722656 12.179688 -21.96875 11.015625 -21.96875 Z M 10.125 -21.96875 "/></g></g></g><g fill="#00afef" fill-opacity="1"><g transform="translate(162.56728, 299.472667)"><g><path d="M 0.46875 -28.859375 C 0.46875 -29.003906 1.078125 -29.140625 2.296875 -29.265625 C 3.515625 -29.390625 4.515625 -29.453125 5.296875 -29.453125 C 8.398438 -29.453125 10.023438 -29.046875 10.171875 -28.234375 L 13.78125 -9.75 L 17.1875 -28.234375 C 17.351562 -29.046875 19.085938 -29.453125 22.390625 -29.453125 C 23.203125 -29.453125 24.222656 -29.394531 25.453125 -29.28125 C 26.691406 -29.164062 27.3125 -29.039062 27.3125 -28.90625 L 19.875 -1.09375 C 19.757812 -0.644531 18.929688 -0.347656 17.390625 -0.203125 C 15.015625 0.046875 12.851562 0.09375 10.90625 -0.0625 C 8.957031 -0.21875 7.925781 -0.488281 7.8125 -0.875 Z M 0.46875 -28.859375 "/></g></g></g><g fill="#00afef" fill-opacity="1"><g transform="translate(190.337077, 299.472667)"><g><path d="M 14.59375 0.421875 C 10.664062 0.421875 7.460938 -0.863281 4.984375 -3.4375 C 2.503906 -6.019531 1.265625 -9.78125 1.265625 -14.71875 C 1.265625 -19.664062 2.515625 -23.410156 5.015625 -25.953125 C 7.523438 -28.503906 10.757812 -29.78125 14.71875 -29.78125 C 18.6875 -29.78125 21.890625 -28.523438 24.328125 -26.015625 C 26.765625 -23.515625 27.984375 -19.722656 27.984375 -14.640625 C 27.984375 -9.554688 26.734375 -5.773438 24.234375 -3.296875 C 21.742188 -0.816406 18.53125 0.421875 14.59375 0.421875 Z M 14.625 -21.71875 C 13.28125 -21.71875 12.148438 -21.101562 11.234375 -19.875 C 10.328125 -18.644531 9.875 -16.914062 9.875 -14.6875 C 9.875 -12.457031 10.304688 -10.742188 11.171875 -9.546875 C 12.046875 -8.359375 13.1875 -7.765625 14.59375 -7.765625 C 16.007812 -7.765625 17.160156 -8.367188 18.046875 -9.578125 C 18.929688 -10.785156 19.375 -12.507812 19.375 -14.75 C 19.375 -16.988281 18.914062 -18.707031 18 -19.90625 C 17.09375 -21.113281 15.96875 -21.71875 14.625 -21.71875 Z M 14.625 -21.71875 "/></g></g></g><g fill="#00afef" fill-opacity="1"><g transform="translate(219.577291, 299.472667)"><g><path d="M 10.5 -0.59375 C 10.5 -0.164062 9.179688 0.046875 6.546875 0.046875 L 4.203125 -0.078125 C 2.796875 -0.191406 2.09375 -0.390625 2.09375 -0.671875 L 2.09375 -28.859375 C 2.09375 -29.335938 3.492188 -29.578125 6.296875 -29.578125 C 9.097656 -29.578125 10.5 -29.335938 10.5 -28.859375 L 10.5 -18.109375 L 15.625 -28.859375 C 15.820312 -29.253906 16.941406 -29.453125 18.984375 -29.453125 C 22.710938 -29.453125 24.675781 -29.128906 24.875 -28.484375 C 24.875 -28.429688 24.859375 -28.375 24.828125 -28.3125 L 17.515625 -15.125 L 26 -3.40625 C 26 -3.34375 25.734375 -3.101562 25.203125 -2.6875 C 23.921875 -1.570312 22.410156 -0.691406 20.671875 -0.046875 C 20.140625 0.148438 19.609375 0.25 19.078125 0.25 L 18.0625 0.171875 C 17.164062 -0.0546875 16.46875 -0.628906 15.96875 -1.546875 L 11.171875 -10.71875 L 10.5 -10.71875 Z M 10.5 -0.59375 "/></g></g></g><g fill="#00afef" fill-opacity="1"><g transform="translate(245.624603, 299.472667)"><g><path d="M 21.84375 0.078125 C 19.40625 0.078125 18.09375 -0.3125 17.90625 -1.09375 L 16.515625 -6.515625 L 9.828125 -6.515625 L 8.609375 -1.296875 C 8.441406 -0.429688 7.097656 0 4.578125 0 C 3.234375 0 2.238281 -0.078125 1.59375 -0.234375 C 0.945312 -0.390625 0.625 -0.507812 0.625 -0.59375 L 8.0625 -29.03125 C 8.0625 -29.257812 9.976562 -29.375 13.8125 -29.375 C 17.65625 -29.375 19.578125 -29.257812 19.578125 -29.03125 L 26.84375 -0.546875 C 26.84375 -0.347656 26.195312 -0.191406 24.90625 -0.078125 C 23.625 0.0234375 22.601562 0.078125 21.84375 0.078125 Z M 10.875 -11.84375 L 15.296875 -11.84375 L 13.40625 -20.546875 L 13.15625 -20.546875 Z M 10.875 -11.84375 "/></g></g></g><g fill="#00afef" fill-opacity="1"><g transform="translate(273.142332, 299.472667)"><g><path d="M 0.375 -3.78125 C 0.375 -4.59375 0.613281 -5.535156 1.09375 -6.609375 C 1.570312 -7.691406 2.085938 -8.429688 2.640625 -8.828125 C 3.710938 -8.035156 4.789062 -7.640625 5.875 -7.640625 L 7.1875 -7.859375 C 8.695312 -8.304688 9.476562 -9.507812 9.53125 -11.46875 L 9.53125 -22.1875 L 6.171875 -22.1875 C 5.703125 -22.1875 5.367188 -22.785156 5.171875 -23.984375 C 5.085938 -24.578125 5.046875 -25.179688 5.046875 -25.796875 C 5.046875 -26.410156 5.085938 -27.015625 5.171875 -27.609375 C 5.367188 -28.804688 5.703125 -29.40625 6.171875 -29.40625 L 16.171875 -29.40625 C 16.734375 -29.40625 17.15625 -29.242188 17.4375 -28.921875 C 17.71875 -28.597656 17.859375 -28.210938 17.859375 -27.765625 L 17.859375 -7.9375 C 17.859375 -5.195312 16.941406 -3.109375 15.109375 -1.671875 C 13.273438 -0.242188 11.070312 0.46875 8.5 0.46875 C 5.9375 0.46875 3.941406 0.0859375 2.515625 -0.671875 C 1.085938 -1.429688 0.375 -2.46875 0.375 -3.78125 Z M 0.375 -3.78125 "/></g></g></g></svg>